<svg width="1440" height="1024" viewBox="0 0 1440 1024" fill="none" xmlns="http://www.w3.org/2000/svg">
<g clip-path="url(#clip0_110:1319)">
<rect width="1440" height="1024" fill="#3B82F6"/>
<g clip-path="url(#clip1_110:1319)">
<path d="M1169.65 711.758L1177.17 729.314C1171.06 728.301 1165.37 733.736 1165.24 740.717C1165.12 747.697 1170.57 754.96 1176.69 755.952C1175.52 761.371 1170.47 763.761 1166.09 765.951C1161.72 768.142 1157 771.775 1157.32 777.549C1157.58 782.186 1161.27 786.28 1165.18 787.926C1169.09 789.572 1173.2 789.319 1177.16 789.043C1171.16 795.58 1170.57 807.867 1175.85 816.682C1181.12 825.497 1191.65 829.837 1199.54 826.444C1193.97 833.657 1195.18 846.866 1202.09 854.31C1209.06 861.814 1219.17 862.54 1228 861.75C1250.49 859.771 1271.92 850.933 1289.61 836.341C1296.36 830.758 1302.67 824.192 1306.52 815.627C1310.37 807.062 1311.51 796.218 1307.92 786.471C1308.89 798.681 1320.63 808.325 1331.19 808.864C1341.76 809.404 1350.98 803.211 1358.82 796.15C1369.24 786.759 1378.9 773.596 1377.47 757.354C1376.76 749.314 1373.38 741.581 1370.07 734.09L1363.66 719.569C1361.06 713.707 1358.42 707.745 1354.52 702.825C1350.62 697.906 1345.21 694.097 1339.79 694.133C1341.03 688.246 1342.27 682.14 1341.23 675.885C1340.2 669.629 1336.22 663.153 1330.82 661.688C1323.94 659.824 1318.11 666.429 1311.2 665.806C1304.54 665.207 1299.04 658.256 1292.58 655.502C1289.92 654.304 1286.98 653.94 1284.12 654.454C1281.26 654.968 1278.61 656.339 1276.49 658.397C1272.4 662.559 1270.69 669.591 1272.16 676.245C1273.45 682.074 1276.87 687.215 1278.95 692.836C1281.03 698.457 1281.36 705.686 1277.36 708.756C1272.54 712.46 1265.2 707.419 1261.43 701.32C1257.67 695.221 1255.5 687.837 1250.74 682.707C1245.12 676.654 1236.32 675.235 1230.53 679.449C1224.74 683.664 1222.53 693.101 1225.45 701.123C1227.83 707.682 1233.3 714.318 1231.4 720.494C1229.4 727.022 1220.63 726.196 1215.35 721.582C1210.06 716.969 1206.55 710.019 1201.32 705.302C1196.02 700.512 1189.09 698.413 1183.01 699.753C1179.92 700.498 1177.07 702.039 1174.71 704.235C1172.35 706.431 1170.55 709.211 1169.5 712.317" fill="#E6E6E6"/>
<path d="M1291.47 662.421L1275.86 669.969C1273.51 671.175 1270.85 671.548 1268.28 671.032C1266.01 670.474 1264.48 669.032 1264.08 667.074L1260.45 649.418C1259.76 646.088 1262.41 642.147 1266.75 640.05L1275.37 635.881C1279.71 633.784 1284.31 634.217 1286.31 636.911L1296.94 651.187C1298.12 652.769 1298.19 654.917 1297.14 657.08C1295.86 659.456 1293.87 661.332 1291.47 662.421V662.421Z" fill="#3F3D56"/>
<path d="M807.382 336.098C822.059 294.296 844.963 256.143 874.628 224.085C899.796 196.896 938.965 198.026 938.965 198.026L939.189 197.737C948.616 185.639 961.267 176.708 975.553 172.064C989.84 167.42 1005.13 167.269 1019.49 171.631C1023.23 172.746 1026.1 173.241 1027.47 172.744C1052.38 163.672 1051.21 143.197 1072.7 126.702C1110.32 97.8196 1235.13 130.903 1252.73 184.049C1267 227.123 1330.67 248.001 1354.45 280.949C1358.17 286.1 1361.82 291.312 1365.4 296.583C1367.08 299.032 1368.74 301.499 1370.38 303.985C1387.23 329.383 1402.35 355.981 1415.63 383.583C1424.33 401.616 1431.9 420.221 1438.27 439.279C1463.08 514.747 1454.6 570.974 1386.2 557.083C1378.1 555.434 1370.2 553.959 1362.49 552.658C1351.33 550.762 1340.55 549.205 1330.17 547.985C1316.19 546.33 1302.89 545.246 1290.26 544.732C1286.02 544.554 1281.85 544.435 1277.76 544.375C1217.31 543.503 1172.47 555.342 1138.31 573.721C1132.52 576.829 1127.03 580.117 1121.85 583.584C1113.93 588.852 1106.37 594.68 1099.22 601.028C1089.33 609.863 1080.2 619.592 1071.96 630.099L1071.5 630.677C1031.55 681.535 1018.4 737.837 990.608 747.75C871.801 790.134 796.661 636.492 788.955 486.197C788.566 478.624 788.351 471.072 788.31 463.542C788.286 460.176 788.302 456.819 788.358 453.471C788.48 444.737 788.85 436.059 789.47 427.485C789.701 424.207 789.969 420.947 790.275 417.704C790.611 414.206 790.977 410.73 791.401 407.275C794.423 381.951 799.71 357.858 807.382 336.098Z" fill="#3B82F6"/>
<path d="M1175.62 418.789C1166.14 423.386 1165.98 443.976 1168.95 450.648L1174.35 462.723L1208.71 446.107L1203.32 434.031C1200.34 427.362 1185.12 414.208 1175.62 418.789Z" fill="#3F3D56"/>
<path d="M1083.27 592.164C1082.66 592.164 1082.07 592.012 1081.53 591.722C1080.99 591.431 1080.53 591.01 1080.19 590.494C1079.84 589.978 1079.62 589.383 1079.54 588.759C1079.46 588.135 1079.53 587.501 1079.74 586.91C1079.9 586.427 1080.16 585.983 1080.5 585.605C1080.83 585.227 1081.23 584.921 1081.68 584.706L1259.17 498.894C1259.62 498.678 1260.1 498.555 1260.59 498.534C1261.08 498.512 1261.58 498.591 1262.04 498.767C1262.5 498.944 1262.93 499.213 1263.29 499.56C1263.66 499.908 1263.95 500.326 1264.16 500.792C1264.58 501.733 1264.62 502.808 1264.28 503.781C1263.94 504.755 1263.24 505.548 1262.33 505.986H1262.33L1084.85 591.797C1084.35 592.039 1083.81 592.164 1083.27 592.164V592.164Z" fill="#3F3D56"/>
<path d="M1222.1 453.808L1171.37 478.337L1250.95 656.586L1301.68 632.057L1222.1 453.808Z" fill="#E6E6E6"/>
<path d="M1031.65 229.423C1022.16 234.02 1022.01 254.61 1024.98 261.281L1030.37 273.357L1064.74 256.741L1059.35 244.665C1056.37 237.996 1041.15 224.841 1031.65 229.423Z" fill="#3F3D56"/>
<path d="M1244.24 682.912L1228.63 690.46C1226.29 691.666 1223.62 692.04 1221.05 691.523C1218.79 690.966 1217.26 689.524 1216.85 687.566L1213.22 669.91C1212.53 666.579 1215.19 662.638 1219.52 660.541L1228.14 656.373C1232.48 654.275 1237.09 654.709 1239.09 657.402L1249.71 671.678C1250.89 673.261 1250.96 675.409 1249.91 677.571C1248.63 679.948 1246.64 681.824 1244.24 682.912V682.912Z" fill="#3F3D56"/>
<path d="M1196.25 707.694L1180.63 715.242C1178.29 716.448 1175.63 716.821 1173.06 716.305C1170.79 715.747 1169.26 714.305 1168.85 712.347L1165.22 694.691C1164.54 691.36 1167.19 687.42 1171.52 685.323L1180.15 681.154C1184.48 679.057 1189.09 679.49 1191.09 682.184L1201.72 696.459C1202.89 698.042 1202.97 700.19 1201.91 702.352C1200.64 704.729 1198.64 706.605 1196.25 707.694V707.694Z" fill="#3F3D56"/>
<path d="M1091.67 294.762L1040.93 319.292L1201.8 679.601L1252.53 655.072L1091.67 294.762Z" fill="#E6E6E6"/>
<path d="M1144.31 480.501L1138.61 467.466L1141.89 465.893L1147.57 478.887L1229.75 668.506L1226.47 670.089" fill="#3F3D56"/>
<path d="M1208.51 469.666L1202.82 456.631L1206.1 455.058L1211.77 468.052L1293.96 657.671L1290.68 659.254" fill="#3F3D56"/>
<path d="M1115.61 323.597L1046.87 356.833C1042.49 349.748 1029.3 313.438 1032.26 302.666L1030.04 292.393L1077.5 269.444L1083.86 277.577C1093.29 280.588 1111.65 314.692 1115.61 323.597Z" fill="#E6E6E6"/>
<path d="M1079.49 269.883L1030.51 293.565C1028.7 294.439 1026.77 294.118 1026.21 292.847C1026.13 292.664 1026.08 292.468 1026.06 292.267L1023.52 264.125C1023.41 262.92 1024.4 261.554 1025.92 260.822L1058.4 245.117C1059.91 244.385 1061.56 244.478 1062.37 245.342L1081.4 265.507C1082.38 266.539 1081.85 268.304 1080.22 269.45C1079.99 269.615 1079.74 269.76 1079.49 269.883V269.883Z" fill="#E6E6E6"/>
<path d="M1117.91 490.367C1117.38 490.369 1116.85 490.304 1116.33 490.174C1115.61 490.017 1114.92 489.69 1114.34 489.216C1113.75 488.743 1113.28 488.136 1112.95 487.442L1083.01 420.371C1081.77 417.594 1083.43 414.043 1086.71 412.455L1130.56 391.255C1133.85 389.666 1137.53 390.634 1138.77 393.41L1168.71 460.482C1169.01 461.188 1169.15 461.957 1169.12 462.728C1169.09 463.5 1168.89 464.253 1168.54 464.932C1167.77 466.469 1166.52 467.691 1165 468.398L1121.16 489.597C1120.14 490.097 1119.03 490.359 1117.91 490.367Z" fill="#3F3D56"/>
<path d="M1123.9 500.52L1073.17 525.049L1152.75 703.298L1203.49 678.768L1123.9 500.52Z" fill="#E6E6E6"/>
<path d="M1061.4 272.824L1046.52 280.017C1043.65 281.405 1039.78 279.092 1037.89 274.862C1036 270.631 1036.8 266.059 1039.67 264.671L1054.55 257.478C1057.42 256.089 1061.29 258.402 1063.18 262.633C1065.07 266.863 1064.27 271.436 1061.4 272.824Z" fill="#3F3D56"/>
<path d="M1078.41 465.022C1068.93 469.619 1068.77 490.209 1071.75 496.88L1077.14 508.956L1111.5 492.34L1106.11 480.264C1103.13 473.595 1087.91 460.44 1078.41 465.022Z" fill="#3F3D56"/>
<path d="M920.805 423.922C917.454 426.245 914.024 420.715 917.439 418.495C920.79 416.172 924.22 421.702 920.805 423.922Z" fill="#E6E6E6"/>
<path d="M1269.61 344.465C1266.26 346.788 1262.83 341.258 1266.24 339.038C1269.59 336.715 1273.02 342.245 1269.61 344.465Z" fill="#E6E6E6"/>
<path d="M1031.87 407.669C1028.52 409.993 1025.09 404.463 1028.5 402.243C1031.85 399.919 1035.28 405.449 1031.87 407.669Z" fill="#E6E6E6"/>
<path d="M920.805 624.37C917.454 626.694 914.024 621.164 917.439 618.944C920.79 616.62 924.22 622.15 920.805 624.37Z" fill="#E6E6E6"/>
<path d="M1091.74 172.007C1088.38 174.33 1084.95 168.8 1088.37 166.58C1091.72 164.257 1095.15 169.787 1091.74 172.007Z" fill="#E6E6E6"/>
<path d="M926.878 278.552C923.527 280.875 920.098 275.345 923.513 273.125C926.864 270.802 930.294 276.331 926.878 278.552Z" fill="#E6E6E6"/>
<path d="M1163.99 248.007L1161.86 247.521L1162.33 245.301L1160.91 244.977L1160.44 247.196L1158.31 246.711L1158 248.19L1160.13 248.676L1159.66 250.895L1161.08 251.219L1161.55 249L1163.68 249.486L1163.99 248.007Z" fill="#E6E6E6"/>
<path d="M816.841 432.906L814.71 432.419L815.176 430.2L813.755 429.876L813.287 432.095L811.155 431.609L810.843 433.088L812.976 433.575L812.509 435.794L813.93 436.117L814.398 433.899L816.53 434.385L816.841 432.906Z" fill="#E6E6E6"/>
<path d="M1254.05 527.223C1252.27 528.079 1250.25 528.167 1248.41 527.468C1246.57 526.769 1245.08 525.341 1244.25 523.497L1235.48 503.844C1234.66 501.999 1234.57 499.889 1235.25 497.98C1235.92 496.07 1237.29 494.516 1239.06 493.659C1240.84 492.802 1242.86 492.712 1244.7 493.409C1246.53 494.106 1248.03 495.533 1248.86 497.377L1257.63 517.029C1258.45 518.876 1258.54 520.986 1257.86 522.897C1257.19 524.808 1255.82 526.364 1254.05 527.223V527.223Z" fill="#3F3D56"/>
<path d="M1104.81 599.457C1103.04 600.312 1101.01 600.4 1099.17 599.702C1097.33 599.003 1095.84 597.575 1095.01 595.731L1086.24 576.078C1085.42 574.232 1085.33 572.123 1086.01 570.213C1086.68 568.304 1088.05 566.75 1089.82 565.893C1091.6 565.036 1093.62 564.946 1095.46 565.643C1097.3 566.34 1098.79 567.767 1099.62 569.61L1108.39 589.263C1109.21 591.109 1109.3 593.219 1108.63 595.13C1107.95 597.042 1106.58 598.597 1104.81 599.457Z" fill="#3F3D56"/>
<path d="M1240.53 484.285L1181.7 512.73C1177.95 506.666 1166.66 475.591 1169.2 466.371L1170.44 456.057L1205.57 438.122L1213.35 444.898C1224.32 441.04 1240.44 469.321 1240.53 484.285Z" fill="#E6E6E6"/>
<path d="M1213.22 482.313L1198.34 489.506C1195.47 490.894 1191.1 487.472 1188.6 481.879C1186.11 476.286 1186.41 470.604 1189.28 469.216L1204.16 462.023C1207.03 460.635 1211.4 464.057 1213.9 469.65C1216.39 475.244 1216.09 480.925 1213.22 482.313Z" fill="#3F3D56"/>
<path d="M1087.04 519.327L1081.35 506.291L1084.63 504.719L1090.3 517.712L1172.48 707.331L1169.21 708.914" fill="#3F3D56"/>
<path d="M1143.32 530.518L1084.49 558.963C1075.81 554.299 1062.55 523.784 1071.99 512.603L1073.23 502.289L1108.36 484.354L1116.15 491.131C1124.22 493.708 1139.93 522.896 1143.32 530.518Z" fill="#E6E6E6"/>
<path d="M1114.8 525.833L1099.92 533.027C1097.05 534.415 1092.95 531.601 1090.79 526.755C1088.63 521.91 1089.2 516.837 1092.07 515.449L1106.95 508.256C1109.82 506.867 1113.92 509.681 1116.08 514.527C1118.24 519.372 1117.67 524.445 1114.8 525.833Z" fill="#3F3D56"/>
<path d="M816.624 393.96C865.982 393.96 905.994 352.322 905.994 300.959C905.994 249.596 865.982 207.958 816.624 207.958C767.267 207.958 727.254 249.596 727.254 300.959C727.254 352.322 767.267 393.96 816.624 393.96Z" fill="#FF6584"/>
<path opacity="0.3" d="M1183.05 397.823L1237.36 232.761L1177.73 395.848C1177.43 396.235 1177.23 396.689 1177.14 397.174C1177.05 397.659 1177.07 398.159 1177.2 398.634C1177.33 399.109 1177.56 399.544 1177.89 399.905C1178.21 400.265 1178.62 400.539 1179.06 400.705C1179.51 400.871 1179.99 400.924 1180.46 400.859C1180.93 400.793 1181.38 400.613 1181.77 400.331C1182.16 400.049 1182.48 399.675 1182.7 399.239C1182.93 398.802 1183.05 398.317 1183.05 397.823H1183.05Z" fill="#F0F0F0"/>
<path d="M1321.49 299.436C1310.86 303.113 1299.07 306.725 1286.13 310.272C1219.2 328.611 1129.48 342.916 1033.5 350.553C937.521 358.19 846.753 358.246 777.915 350.711C744.382 347.04 717.86 341.76 699.084 335.017C679.207 327.879 668.762 319.277 668.04 309.452C666.633 290.31 702.931 273.463 733.628 262.7L734.46 265.267C692.304 280.047 669.637 295.666 670.635 309.246C671.906 326.542 711.107 340.673 778.188 348.017C846.874 355.535 937.475 355.478 1033.3 347.853C1129.13 340.227 1218.68 325.95 1285.47 307.652C1350.7 289.782 1387.38 269.612 1386.11 252.316C1385.05 237.955 1357.85 225.67 1309.51 217.723L1309.92 215.047C1345.04 220.822 1387.22 231.939 1388.7 252.109C1389.43 261.935 1380.36 272.089 1361.76 282.289C1351.15 288.103 1337.68 293.839 1321.49 299.436Z" fill="#3F3D56"/>
<path d="M1347.75 464.382C1352.88 464.382 1357.04 460.055 1357.04 454.719C1357.04 449.382 1352.88 445.055 1347.75 445.055C1342.62 445.055 1338.47 449.382 1338.47 454.719C1338.47 460.055 1342.62 464.382 1347.75 464.382Z" fill="#FF6584"/>
<path d="M1406.75 726.229C1411.88 726.229 1416.04 721.903 1416.04 716.566C1416.04 711.229 1411.88 706.903 1406.75 706.903C1401.63 706.903 1397.47 711.229 1397.47 716.566C1397.47 721.903 1401.63 726.229 1406.75 726.229Z" fill="#F2F2F2"/>
<path d="M1090.06 785.067C1100.05 785.067 1108.16 776.632 1108.16 766.227C1108.16 755.821 1100.05 747.386 1090.06 747.386C1080.06 747.386 1071.95 755.821 1071.95 766.227C1071.95 776.632 1080.06 785.067 1090.06 785.067Z" fill="#F2F2F2"/>
<path d="M952.097 535.713C957.225 535.713 961.383 531.386 961.383 526.049C961.383 520.712 957.225 516.386 952.097 516.386C946.968 516.386 942.811 520.712 942.811 526.049C942.811 531.386 946.968 535.713 952.097 535.713Z" fill="#3F3D56"/>
<path d="M1264.28 548.29L1304.35 559.083L1328.92 609.31L1287.38 611.006L1264.28 548.29Z" fill="#E6E6E6"/>
<path d="M1171.81 475.881L1193.86 498.841L1249.86 624.848L1239.55 634.118L1171.81 475.881Z" fill="#CCCCCC"/>
<path d="M1123.86 496.693L1125.59 529.105L1178.45 656.574L1191.97 654.762L1123.86 496.693Z" fill="#CCCCCC"/>
<path d="M1122.42 627.629L1100.84 664.38L1116.75 718.256L1147.73 689.41L1122.42 627.629Z" fill="#E6E6E6"/>
<path d="M1313.03 650.211C1301.83 650.211 1289.55 649.77 1276.19 648.889C1207.11 644.324 1117.63 628.454 1024.24 604.202C930.847 579.95 844.694 550.212 781.653 520.47C750.944 505.981 727.375 492.266 711.602 479.705C694.901 466.408 687.597 454.817 689.889 445.256C694.356 426.63 733.907 422.555 766.299 422.416L766.31 425.125C721.827 425.315 695.584 432.698 692.415 445.912C688.379 462.743 721.297 489.018 782.728 518.003C845.63 547.68 931.625 577.36 1024.87 601.574C1118.12 625.787 1207.43 641.631 1276.36 646.186C1343.67 650.635 1384.59 643.533 1388.63 626.702C1391.98 612.728 1369.89 592.143 1326.42 568.736L1327.62 566.331C1359.2 583.338 1395.86 607.731 1391.15 627.358C1388.86 636.919 1377.18 643.579 1356.43 647.153C1344.61 649.19 1330.08 650.211 1313.03 650.211Z" fill="#3F3D56"/>
</g>
<g clip-path="url(#clip2_110:1319)">
<path d="M610.402 858.591C606.672 901.671 587.892 943.301 561.102 977.731C559.982 979.171 558.849 980.597 557.702 982.011C555.122 985.191 552.476 988.311 549.762 991.371C546.442 995.141 543.026 998.824 539.512 1002.42C536.652 1005.38 533.726 1008.28 530.732 1011.11C528.422 1013.32 526.086 1015.49 523.722 1017.61C495.292 1043.3 462.632 1064.5 428.982 1083.04C363.312 1119.21 291.332 1146.61 216.462 1150.6C141.602 1154.58 63.4522 1133.14 8.55218 1082.08C-65.4378 1013.27 -86.0878 898.501 -56.0478 802.031C-36.0678 737.851 4.71217 679.791 60.2122 641.871C115.232 604.281 184.642 587.361 250.332 598.421C302.772 566.551 371.422 565.941 428.432 589.531C458.852 602.121 486.152 620.841 510.102 643.461C521.07 653.842 531.333 664.943 540.822 676.691C541.792 677.881 542.752 679.081 543.702 680.291C547.682 685.321 551.532 690.454 555.252 695.691C560.592 703.201 565.662 710.877 570.462 718.721C571.782 720.881 573.092 723.051 574.372 725.241C575.232 726.711 576.102 728.191 576.952 729.681C576.972 729.711 576.985 729.745 576.992 729.781C590.302 753.191 601.182 778.171 606.852 804.281C607.852 808.901 608.692 813.541 609.342 818.221V818.231C609.912 822.201 610.342 826.191 610.632 830.201C611.316 839.655 611.239 849.149 610.402 858.591V858.591Z" fill="#3F3D56"/>
<path opacity="0.3" d="M415.044 923.717L266.582 800.039L410.81 928.671C411.089 929.142 411.477 929.539 411.94 929.829C412.404 930.12 412.93 930.296 413.475 930.343C414.02 930.39 414.568 930.306 415.075 930.099C415.581 929.891 416.03 929.566 416.386 929.15C416.741 928.734 416.992 928.24 417.118 927.707C417.245 927.175 417.242 926.62 417.111 926.089C416.979 925.558 416.723 925.065 416.364 924.653C416.004 924.241 415.552 923.92 415.044 923.717V923.717Z" fill="#F0F0F0"/>
<path d="M74.5822 860.781C123.736 860.781 163.582 820.934 163.582 771.781C163.582 722.627 123.736 682.781 74.5822 682.781C25.4288 682.781 -14.4178 722.627 -14.4178 771.781C-14.4178 820.934 25.4288 860.781 74.5822 860.781Z" fill="#F2F2F2"/>
<path d="M153.582 765.781C153.583 776.418 151.488 786.951 147.418 796.779C143.348 806.607 137.381 815.537 129.86 823.058C122.338 830.58 113.408 836.546 103.58 840.617C93.7527 844.687 83.2194 846.782 72.5821 846.781C63.1011 846.775 53.6936 845.117 44.7821 841.881C30.8483 836.805 18.5741 828.003 9.29596 816.434C0.0177898 804.866 -5.90878 790.973 -7.8385 776.27C-9.76822 761.566 -7.62714 746.615 -1.64835 733.044C4.33045 719.473 13.9178 707.802 26.0699 699.302C38.222 690.803 52.473 685.8 67.2715 684.838C82.0699 683.876 96.8486 686.993 109.998 693.849C123.148 700.705 134.165 711.036 141.85 723.72C149.535 736.403 153.593 750.951 153.582 765.781V765.781Z" fill="white"/>
<path d="M58.5822 763.781C72.3893 763.781 83.5822 752.588 83.5822 738.781C83.5822 724.974 72.3893 713.781 58.5822 713.781C44.775 713.781 33.5822 724.974 33.5822 738.781C33.5822 752.588 44.775 763.781 58.5822 763.781Z" fill="#E4E4E4"/>
<path d="M150.422 743.311C145.004 745.917 138.828 746.484 133.026 744.907C127.223 743.33 122.184 739.715 118.831 734.724C115.478 729.733 114.036 723.701 114.769 717.733C115.502 711.765 118.361 706.262 122.822 702.231C136.08 712.712 145.73 727.075 150.422 743.311Z" fill="#F2F2F2"/>
<path d="M99.5822 801.781C104.553 801.781 108.582 797.751 108.582 792.781C108.582 787.81 104.553 783.781 99.5822 783.781C94.6116 783.781 90.5822 787.81 90.5822 792.781C90.5822 797.751 94.6116 801.781 99.5822 801.781Z" fill="#E4E4E4"/>
<path d="M62.5821 843.781C62.5814 844.571 62.4772 845.358 62.2721 846.121C56.3005 845.374 50.4329 843.951 44.7821 841.881C45.2514 839.709 46.5072 837.788 48.3079 836.487C50.1085 835.185 52.3268 834.596 54.5359 834.832C56.7451 835.067 58.789 836.112 60.2744 837.764C61.7598 839.416 62.5817 841.559 62.5821 843.781Z" fill="#F2F2F2"/>
<path d="M9.58207 761.781C9.58161 766.347 7.84607 770.742 4.72688 774.077C1.60768 777.411 -2.6621 779.436 -7.21795 779.741C-9.28005 767.854 -8.67892 755.657 -5.45794 744.031C-1.25607 744.731 2.56119 746.899 5.31504 750.149C8.06889 753.399 9.58085 757.521 9.58207 761.781Z" fill="#F2F2F2"/>
<path d="M453.456 733.185C455.501 733.185 457.159 731.528 457.159 729.483C457.159 727.438 455.501 725.781 453.456 725.781C451.412 725.781 449.754 727.438 449.754 729.483C449.754 731.528 451.412 733.185 453.456 733.185Z" fill="#6C63FF"/>
<path d="M419.302 643.112C420.497 643.112 421.465 642.143 421.465 640.948C421.465 639.754 420.497 638.785 419.302 638.785C418.108 638.785 417.139 639.754 417.139 640.948C417.139 642.143 418.108 643.112 419.302 643.112Z" fill="#F0F0F0"/>
<path d="M431.581 854.757C432.776 854.757 433.745 853.789 433.745 852.594C433.745 851.399 432.776 850.431 431.581 850.431C430.387 850.431 429.418 851.399 429.418 852.594C429.418 853.789 430.387 854.757 431.581 854.757Z" fill="#F0F0F0"/>
<path d="M152.457 875.185C154.501 875.185 156.159 873.528 156.159 871.483C156.159 869.438 154.501 867.781 152.457 867.781C150.412 867.781 148.754 869.438 148.754 871.483C148.754 873.528 150.412 875.185 152.457 875.185Z" fill="#6C63FF"/>
<path d="M18.4566 954.966C28.1122 954.966 35.9396 947.139 35.9396 937.483C35.9396 927.827 28.1122 920 18.4566 920C8.80094 920 0.973511 927.827 0.973511 937.483C0.973511 947.139 8.80094 954.966 18.4566 954.966Z" fill="#6C63FF"/>
<path d="M114.302 959.112C115.497 959.112 116.465 958.143 116.465 956.948C116.465 955.754 115.497 954.785 114.302 954.785C113.108 954.785 112.139 955.754 112.139 956.948C112.139 958.143 113.108 959.112 114.302 959.112Z" fill="#F0F0F0"/>
<path d="M334.302 621.112C335.497 621.112 336.465 620.143 336.465 618.948C336.465 617.754 335.497 616.785 334.302 616.785C333.108 616.785 332.139 617.754 332.139 618.948C332.139 620.143 333.108 621.112 334.302 621.112Z" fill="#F0F0F0"/>
<path d="M173.302 641.112C174.497 641.112 175.465 640.143 175.465 638.948C175.465 637.754 174.497 636.785 173.302 636.785C172.108 636.785 171.139 637.754 171.139 638.948C171.139 640.143 172.108 641.112 173.302 641.112Z" fill="#F0F0F0"/>
<path d="M229.302 746.112C230.497 746.112 231.465 745.143 231.465 743.948C231.465 742.754 230.497 741.785 229.302 741.785C228.108 741.785 227.139 742.754 227.139 743.948C227.139 745.143 228.108 746.112 229.302 746.112Z" fill="#F0F0F0"/>
<path d="M143.581 1003.76C144.776 1003.76 145.744 1002.79 145.744 1001.59C145.744 1000.4 144.776 999.431 143.581 999.431C142.387 999.431 141.418 1000.4 141.418 1001.59C141.418 1002.79 142.387 1003.76 143.581 1003.76Z" fill="#F0F0F0"/>
<path d="M396.581 1017.76C397.776 1017.76 398.745 1016.79 398.745 1015.59C398.745 1014.4 397.776 1013.43 396.581 1013.43C395.387 1013.43 394.418 1014.4 394.418 1015.59C394.418 1016.79 395.387 1017.76 396.581 1017.76Z" fill="#F0F0F0"/>
<path d="M284.581 891.757C285.776 891.757 286.744 890.789 286.744 889.594C286.744 888.399 285.776 887.431 284.581 887.431C283.387 887.431 282.418 888.399 282.418 889.594C282.418 890.789 283.387 891.757 284.581 891.757Z" fill="#F0F0F0"/>
<path d="M341.581 745.757C342.776 745.757 343.744 744.789 343.744 743.594C343.744 742.399 342.776 741.431 341.581 741.431C340.387 741.431 339.418 742.399 339.418 743.594C339.418 744.789 340.387 745.757 341.581 745.757Z" fill="#F0F0F0"/>
<path d="M445.212 817.944C447.581 817.944 449.501 816.023 449.501 813.655C449.501 811.286 447.581 809.366 445.212 809.366C442.843 809.366 440.923 811.286 440.923 813.655C440.923 816.023 442.843 817.944 445.212 817.944Z" fill="#FF6584"/>
<path d="M271.212 675.943C273.581 675.943 275.501 674.023 275.501 671.655C275.501 669.286 273.581 667.366 271.212 667.366C268.843 667.366 266.923 669.286 266.923 671.655C266.923 674.023 268.843 675.943 271.212 675.943Z" fill="#FF6584"/>
<path d="M271.212 970.944C273.581 970.944 275.501 969.023 275.501 966.655C275.501 964.286 273.581 962.366 271.212 962.366C268.843 962.366 266.923 964.286 266.923 966.655C266.923 969.023 268.843 970.944 271.212 970.944Z" fill="#FF6584"/>
<path d="M538.422 991.371C536.752 991.372 535.127 991.918 533.794 992.924C532.461 993.931 531.491 995.344 531.032 996.951C530.83 997.639 530.729 998.353 530.732 999.071V1011.11C533.722 1008.28 536.649 1005.38 539.512 1002.42C543.022 998.821 546.439 995.137 549.762 991.371H538.422Z" fill="#6C63FF"/>
<path d="M565.651 1053.93C552.739 1053.93 538.587 1053.44 523.194 1052.47C443.581 1047.41 340.457 1029.83 232.818 1002.98C125.181 976.116 25.8883 943.181 -46.767 910.241C-82.1596 894.194 -109.323 879.004 -127.502 865.093C-146.749 850.366 -155.168 837.529 -152.526 826.94C-147.378 806.312 -101.795 801.798 -64.4623 801.645L-64.4496 804.645C-115.718 804.855 -145.963 813.032 -149.615 827.667C-154.267 846.307 -116.328 875.408 -45.5282 907.508C26.9674 940.376 126.077 973.248 233.545 1000.06C341.012 1026.88 443.946 1044.43 523.385 1049.47C600.964 1054.4 648.128 1046.54 652.779 1027.9C656.641 1012.42 631.181 989.62 581.09 963.697L582.469 961.033C618.866 979.869 661.114 1006.88 655.691 1028.62C653.048 1039.21 639.585 1046.59 615.675 1050.54C602.046 1052.8 585.305 1053.93 565.651 1053.93Z" fill="#6C63FF"/>
<path d="M561.582 830.281C617.087 830.281 662.082 785.285 662.082 729.781C662.082 674.276 617.087 629.281 561.582 629.281C506.077 629.281 461.082 674.276 461.082 729.781C461.082 785.285 506.077 830.281 561.582 830.281Z" fill="white"/>
<path d="M561.582 627.781C541.408 627.781 521.688 633.763 504.914 644.971C488.14 656.179 475.067 672.109 467.346 690.747C459.626 709.385 457.606 729.894 461.542 749.68C465.478 769.466 475.192 787.641 489.457 801.906C503.722 816.171 521.897 825.885 541.683 829.821C561.469 833.756 581.978 831.737 600.616 824.016C619.254 816.296 635.184 803.223 646.392 786.449C657.6 769.675 663.582 749.954 663.582 729.781C663.63 716.372 661.025 703.087 655.916 690.69C650.807 678.293 643.296 667.029 633.815 657.548C624.333 648.067 613.07 640.556 600.673 635.447C588.276 630.338 574.99 627.732 561.582 627.781V627.781ZM561.582 828.781C542.002 828.781 522.861 822.974 506.581 812.096C490.3 801.218 477.611 785.756 470.118 767.666C462.625 749.576 460.664 729.671 464.484 710.467C468.304 691.263 477.733 673.623 491.579 659.777C505.424 645.932 523.064 636.503 542.268 632.683C561.472 628.863 581.378 630.824 599.468 638.317C617.558 645.81 633.019 658.499 643.898 674.779C654.776 691.06 660.582 710.2 660.582 729.781C660.633 742.796 658.106 755.692 653.149 767.726C648.192 779.76 640.901 790.694 631.698 799.897C622.495 809.1 611.562 816.39 599.527 821.348C587.493 826.305 574.597 828.831 561.582 828.781V828.781Z" fill="#2F2E41"/>
<path d="M473.387 753.852C472.927 753.851 472.481 753.692 472.124 753.401C471.768 753.11 471.523 752.705 471.43 752.254C468.555 737.611 469.074 722.504 472.947 708.092C476.82 693.681 483.943 680.349 493.771 669.119C494.124 668.725 494.619 668.487 495.148 668.457C495.676 668.428 496.195 668.609 496.59 668.961C496.985 669.313 497.225 669.808 497.256 670.336C497.287 670.864 497.108 671.384 496.757 671.78C487.339 682.541 480.513 695.318 476.802 709.128C473.09 722.939 472.593 737.416 475.348 751.448C475.407 751.739 475.401 752.04 475.33 752.328C475.259 752.616 475.125 752.885 474.938 753.115C474.75 753.345 474.513 753.531 474.245 753.658C473.977 753.785 473.684 753.852 473.387 753.852H473.387Z" fill="#2F2E41"/>
<path d="M561.519 823.151C596.798 823.151 625.396 794.552 625.396 759.274C625.396 723.995 596.798 695.397 561.519 695.397C526.241 695.397 497.642 723.995 497.642 759.274C497.642 794.552 526.241 823.151 561.519 823.151Z" fill="#6C63FF"/>
<path d="M541.218 783.39C537.077 783.275 531.924 783.131 527.954 780.231C526.772 779.332 525.8 778.185 525.108 776.872C524.416 775.558 524.019 774.108 523.946 772.625C523.874 771.571 524.047 770.514 524.451 769.538C524.855 768.562 525.48 767.692 526.276 766.997C528.349 765.245 531.377 764.834 534.64 765.793L531.26 741.087L533.741 740.747L537.716 769.792L535.643 768.841C533.241 767.739 529.942 767.178 527.893 768.91C527.39 769.363 526.998 769.926 526.747 770.555C526.497 771.184 526.395 771.862 526.449 772.537C526.51 773.641 526.808 774.719 527.322 775.697C527.837 776.676 528.556 777.532 529.432 778.208C532.521 780.465 536.629 780.756 541.288 780.886L541.218 783.39Z" fill="#2F2E41"/>
<path d="M518.986 743.218H505.495V745.723H518.986V743.218Z" fill="#2F2E41"/>
<path d="M561.571 743.218H548.08V745.723H561.571V743.218Z" fill="#2F2E41"/>
<path d="M564.202 838.941H506.302C504.144 838.943 502.074 839.801 500.548 841.327C499.022 842.853 498.164 844.922 498.162 847.081V975.411C498.168 984.107 500.553 992.636 505.058 1000.07C509.563 1007.51 516.018 1013.58 523.722 1017.61C526.092 1015.49 528.429 1013.32 530.732 1011.11C533.722 1008.28 536.649 1005.38 539.512 1002.42C543.022 998.821 546.439 995.137 549.762 991.371C552.482 988.311 555.129 985.191 557.702 982.011C558.852 980.601 559.985 979.174 561.102 977.731C587.892 943.301 606.672 901.671 610.402 858.591C604.422 852.373 597.247 847.427 589.308 844.05C581.369 840.674 572.829 838.936 564.202 838.941Z" fill="#2F2E41"/>
<path d="M566.312 865.721C564.935 864.372 563.304 863.309 561.514 862.593C559.724 861.878 557.81 861.523 555.882 861.551C552.532 861.576 549.294 862.764 546.722 864.911C546.311 865.244 545.92 865.601 545.552 865.981L498.162 914.581L463.792 949.831C463.27 950.357 462.838 950.965 462.512 951.631C461.997 952.661 461.733 953.799 461.742 954.951C461.752 955.898 461.95 956.834 462.325 957.704C462.699 958.574 463.242 959.362 463.922 960.021L465.272 961.341L475.072 970.891L475.082 970.881C476.399 971.95 478.047 972.526 479.742 972.511C480.689 972.501 481.625 972.303 482.496 971.928C483.366 971.554 484.153 971.011 484.812 970.331L486.402 968.711L497.782 957.041L498.162 956.651L566.572 886.491C569.291 883.702 570.791 879.947 570.742 876.052C570.694 872.157 569.1 868.441 566.312 865.721L566.312 865.721Z" fill="#6C63FF"/>
<path d="M565.831 729.473C567.944 725.007 565.778 720.236 562.068 717.382C557.392 713.787 551.345 714.382 546.027 716.083C540.205 717.947 534.514 721.299 528.224 721.107C525.982 721.067 523.804 720.35 521.976 719.052C520.148 717.753 518.755 715.933 517.98 713.829C514.611 705.19 518.415 695.534 524.279 688.982C527.59 685.23 531.681 682.249 536.267 680.247C540.853 678.246 545.821 677.273 550.823 677.396C556.533 677.68 562.084 679.371 566.981 682.32C571.879 685.27 575.97 689.385 578.891 694.299C579.099 694.634 579.428 694.877 579.81 694.977C580.192 695.078 580.598 695.027 580.944 694.837C585.394 692.847 590.195 691.76 595.069 691.637C599.943 691.514 604.792 692.359 609.337 694.123C616.156 696.902 621.968 701.69 626.001 707.851C630.034 714.012 632.098 721.253 631.918 728.615C631.868 730.546 634.868 730.545 634.918 728.615C635.105 718.324 631.307 708.358 624.319 700.802C620.77 697.034 616.502 694.016 611.767 691.926C607.032 689.837 601.927 688.717 596.752 688.634C590.778 688.507 584.854 689.743 579.429 692.247L581.482 692.785C578.778 688.233 575.145 684.302 570.821 681.247C566.496 678.193 561.577 676.084 556.383 675.057C551.24 674.097 545.95 674.255 540.874 675.519C535.797 676.783 531.051 679.125 526.959 682.384C519.257 688.412 513.421 697.765 513.784 707.795C513.941 712.136 515.231 716.591 518.244 719.826C522.104 723.969 527.867 724.685 533.191 723.624C540.266 722.213 546.726 717.559 554.102 717.703C555.547 717.703 556.975 718.011 558.293 718.605C559.61 719.199 560.786 720.066 561.744 721.148C563.368 722.981 564.348 725.618 563.241 727.959C562.42 729.695 565.006 731.219 565.831 729.473L565.831 729.473Z" fill="#2F2E41"/>
<path d="M87.064 1090.36C51.4649 1090.36 18.3697 1089.14 -11.2582 1086.67C-49.9848 1083.45 -80.6728 1078.27 -102.469 1071.27C-125.545 1063.87 -137.788 1054.61 -138.857 1043.75C-140.94 1022.59 -99.5229 1003.02 -64.4116 990.333L-63.392 993.155C-111.609 1010.58 -137.349 1028.44 -135.872 1043.45C-133.99 1062.57 -88.4794 1077.23 -11.0097 1083.68C68.3155 1090.28 172.708 1087.94 282.938 1077.09C393.168 1066.24 496.013 1048.18 572.529 1026.24C647.255 1004.82 689.034 981.565 687.152 962.446C685.589 946.572 653.949 933.653 598.06 926.067L598.463 923.094C639.073 928.606 687.943 939.856 690.137 962.152C691.207 973.013 681.004 984.484 659.815 996.246C639.8 1007.35 610.711 1018.42 573.356 1029.13C496.671 1051.12 393.636 1069.21 283.231 1080.08C213.972 1086.89 146.986 1090.36 87.064 1090.36Z" fill="#6C63FF"/>
<path d="M685.456 972.966C695.112 972.966 702.94 965.139 702.94 955.483C702.94 945.827 695.112 938 685.456 938C675.801 938 667.973 945.827 667.973 955.483C667.973 965.139 675.801 972.966 685.456 972.966Z" fill="#6C63FF"/>
<path d="M178.457 555.966C188.112 555.966 195.94 548.139 195.94 538.483C195.94 528.827 188.112 521 178.457 521C168.801 521 160.974 528.827 160.974 538.483C160.974 548.139 168.801 555.966 178.457 555.966Z" fill="#E6E6E6"/>
<path d="M654.456 871.185C660.367 871.185 665.159 866.394 665.159 860.483C665.159 854.572 660.367 849.781 654.456 849.781C648.546 849.781 643.754 854.572 643.754 860.483C643.754 866.394 648.546 871.185 654.456 871.185Z" fill="#FF6584"/>
</g>
</g>
<defs>
<clipPath id="clip0_110:1319">
<rect width="1440" height="1024" fill="white"/>
</clipPath>
<clipPath id="clip1_110:1319">
<rect width="783" height="746" fill="white" transform="translate(668 116)"/>
</clipPath>
<clipPath id="clip2_110:1319">
<rect width="855.94" height="630.066" fill="white" transform="translate(-153 521)"/>
</clipPath>
</defs>
</svg>
