<svg width="1604" height="1036" viewBox="0 0 1604 1036" fill="none" xmlns="http://www.w3.org/2000/svg">
<g clip-path="url(#clip0_110:1319)">
<rect width="1604" height="1035.07" fill="#3B82F6"/>
<g clip-path="url(#clip1_110:1319)">
<path d="M1322.65 595.758L1330.17 613.314C1324.06 612.301 1318.37 617.736 1318.24 624.717C1318.12 631.697 1323.57 638.96 1329.69 639.952C1328.52 645.371 1323.47 647.761 1319.09 649.951C1314.72 652.142 1310 655.775 1310.32 661.549C1310.58 666.186 1314.27 670.28 1318.18 671.926C1322.09 673.572 1326.2 673.319 1330.16 673.043C1324.16 679.58 1323.57 691.867 1328.85 700.682C1334.12 709.497 1344.65 713.837 1352.54 710.444C1346.97 717.657 1348.18 730.866 1355.09 738.31C1362.06 745.814 1372.17 746.54 1381 745.75C1403.49 743.771 1424.92 734.933 1442.61 720.341C1449.36 714.758 1455.67 708.192 1459.52 699.627C1463.37 691.062 1464.51 680.218 1460.92 670.471C1461.89 682.681 1473.63 692.325 1484.19 692.864C1494.76 693.404 1503.98 687.211 1511.82 680.15C1522.24 670.759 1531.9 657.596 1530.47 641.354C1529.76 633.314 1526.38 625.581 1523.07 618.09L1516.66 603.569C1514.06 597.707 1511.42 591.745 1507.52 586.825C1503.62 581.906 1498.21 578.097 1492.79 578.133C1494.03 572.246 1495.27 566.14 1494.23 559.885C1493.2 553.629 1489.22 547.153 1483.82 545.688C1476.94 543.824 1471.11 550.429 1464.2 549.806C1457.54 549.207 1452.04 542.256 1445.58 539.502C1442.92 538.304 1439.98 537.94 1437.12 538.454C1434.26 538.968 1431.61 540.339 1429.49 542.397C1425.4 546.559 1423.69 553.591 1425.16 560.245C1426.45 566.074 1429.87 571.215 1431.95 576.836C1434.03 582.457 1434.36 589.686 1430.36 592.756C1425.54 596.46 1418.2 591.419 1414.43 585.32C1410.67 579.221 1408.5 571.837 1403.74 566.707C1398.12 560.654 1389.32 559.235 1383.53 563.449C1377.74 567.664 1375.53 577.101 1378.45 585.123C1380.83 591.682 1386.3 598.318 1384.4 604.494C1382.4 611.022 1373.63 610.196 1368.35 605.582C1363.06 600.969 1359.55 594.019 1354.32 589.302C1349.02 584.512 1342.09 582.413 1336.01 583.753C1332.92 584.498 1330.07 586.039 1327.71 588.235C1325.35 590.431 1323.55 593.211 1322.5 596.317" fill="#E6E6E6"/>
<path d="M1444.47 546.421L1428.86 553.969C1426.51 555.175 1423.85 555.548 1421.28 555.032C1419.01 554.474 1417.48 553.032 1417.08 551.074L1413.45 533.418C1412.76 530.088 1415.41 526.147 1419.75 524.05L1428.37 519.881C1432.71 517.784 1437.31 518.217 1439.31 520.911L1449.94 535.187C1451.12 536.769 1451.19 538.917 1450.14 541.08C1448.86 543.456 1446.87 545.332 1444.47 546.421V546.421Z" fill="#3F3D56"/>
<path d="M960.382 220.098C975.059 178.296 997.963 140.143 1027.63 108.085C1052.8 80.8961 1091.97 82.0258 1091.97 82.0258L1092.19 81.7369C1101.62 69.6393 1114.27 60.7081 1128.55 56.0638C1142.84 51.4196 1158.13 51.2691 1172.49 55.6312C1176.23 56.7464 1179.1 57.2408 1180.47 56.744C1205.38 47.6723 1204.21 27.1966 1225.7 10.7015C1263.32 -18.1804 1388.13 14.9033 1405.73 68.0494C1420 111.123 1483.67 132.001 1507.45 164.949C1511.17 170.1 1514.82 175.312 1518.4 180.583C1520.08 183.032 1521.74 185.499 1523.38 187.985C1540.23 213.383 1555.35 239.981 1568.63 267.583C1577.33 285.616 1584.9 304.221 1591.27 323.279C1616.08 398.747 1607.6 454.974 1539.2 441.083C1531.1 439.434 1523.2 437.959 1515.49 436.658C1504.33 434.762 1493.55 433.205 1483.17 431.985C1469.19 430.33 1455.89 429.246 1443.26 428.732C1439.02 428.554 1434.85 428.435 1430.76 428.375C1370.31 427.503 1325.47 439.342 1291.31 457.721C1285.52 460.829 1280.03 464.117 1274.85 467.584C1266.93 472.852 1259.37 478.68 1252.22 485.028C1242.33 493.863 1233.2 503.592 1224.96 514.099L1224.5 514.677C1184.55 565.535 1171.4 621.837 1143.61 631.75C1024.8 674.134 949.661 520.492 941.955 370.197C941.566 362.624 941.351 355.072 941.31 347.542C941.286 344.176 941.302 340.819 941.358 337.471C941.48 328.737 941.85 320.059 942.47 311.485C942.701 308.207 942.969 304.947 943.275 301.704C943.611 298.206 943.977 294.73 944.401 291.275C947.423 265.951 952.71 241.858 960.382 220.098Z" fill="#3B82F6"/>
<path d="M1328.62 302.789C1319.14 307.386 1318.98 327.976 1321.95 334.648L1327.35 346.723L1361.71 330.107L1356.32 318.031C1353.34 311.362 1338.12 298.208 1328.62 302.789Z" fill="#3F3D56"/>
<path d="M1236.27 476.164C1235.66 476.164 1235.07 476.012 1234.53 475.722C1233.99 475.431 1233.53 475.01 1233.19 474.494C1232.84 473.978 1232.62 473.383 1232.54 472.759C1232.46 472.135 1232.53 471.501 1232.74 470.91C1232.9 470.427 1233.16 469.983 1233.5 469.605C1233.83 469.227 1234.23 468.921 1234.68 468.706L1412.17 382.894C1412.62 382.678 1413.1 382.555 1413.59 382.534C1414.08 382.512 1414.58 382.591 1415.04 382.767C1415.5 382.944 1415.93 383.213 1416.29 383.56C1416.66 383.908 1416.95 384.326 1417.16 384.792C1417.58 385.733 1417.62 386.808 1417.28 387.781C1416.94 388.755 1416.24 389.548 1415.33 389.986H1415.33L1237.85 475.797C1237.35 476.039 1236.81 476.164 1236.27 476.164V476.164Z" fill="#3F3D56"/>
<path d="M1375.1 337.808L1324.37 362.337L1403.95 540.586L1454.68 516.057L1375.1 337.808Z" fill="#E6E6E6"/>
<path d="M1184.65 113.423C1175.16 118.02 1175.01 138.61 1177.98 145.281L1183.37 157.357L1217.74 140.741L1212.35 128.665C1209.37 121.996 1194.15 108.841 1184.65 113.423Z" fill="#3F3D56"/>
<path d="M1397.24 566.912L1381.63 574.46C1379.29 575.666 1376.62 576.04 1374.05 575.523C1371.79 574.966 1370.26 573.524 1369.85 571.566L1366.22 553.91C1365.53 550.579 1368.19 546.638 1372.52 544.541L1381.14 540.373C1385.48 538.275 1390.09 538.709 1392.09 541.402L1402.71 555.678C1403.89 557.261 1403.96 559.409 1402.91 561.571C1401.63 563.948 1399.64 565.824 1397.24 566.912V566.912Z" fill="#3F3D56"/>
<path d="M1349.25 591.694L1333.63 599.242C1331.29 600.448 1328.63 600.821 1326.06 600.305C1323.79 599.747 1322.26 598.305 1321.85 596.347L1318.22 578.691C1317.54 575.36 1320.19 571.42 1324.52 569.323L1333.15 565.154C1337.48 563.057 1342.09 563.49 1344.09 566.184L1354.72 580.459C1355.89 582.042 1355.97 584.19 1354.91 586.352C1353.64 588.729 1351.64 590.605 1349.25 591.694V591.694Z" fill="#3F3D56"/>
<path d="M1244.67 178.762L1193.93 203.292L1354.8 563.601L1405.53 539.072L1244.67 178.762Z" fill="#E6E6E6"/>
<path d="M1297.31 364.501L1291.61 351.466L1294.89 349.893L1300.57 362.887L1382.75 552.506L1379.47 554.089" fill="#3F3D56"/>
<path d="M1361.51 353.666L1355.82 340.631L1359.1 339.058L1364.77 352.052L1446.96 541.671L1443.68 543.254" fill="#3F3D56"/>
<path d="M1268.61 207.597L1199.87 240.833C1195.49 233.748 1182.3 197.438 1185.26 186.666L1183.04 176.393L1230.5 153.444L1236.86 161.577C1246.29 164.588 1264.65 198.692 1268.61 207.597Z" fill="#E6E6E6"/>
<path d="M1232.49 153.883L1183.51 177.565C1181.7 178.439 1179.77 178.118 1179.21 176.847C1179.13 176.664 1179.08 176.468 1179.06 176.267L1176.52 148.125C1176.41 146.92 1177.4 145.554 1178.92 144.822L1211.4 129.117C1212.91 128.385 1214.56 128.478 1215.37 129.342L1234.4 149.507C1235.38 150.539 1234.85 152.304 1233.22 153.45C1232.99 153.615 1232.74 153.76 1232.49 153.883V153.883Z" fill="#E6E6E6"/>
<path d="M1270.91 374.367C1270.38 374.369 1269.85 374.304 1269.33 374.174C1268.61 374.017 1267.92 373.69 1267.34 373.216C1266.75 372.743 1266.28 372.136 1265.95 371.442L1236.01 304.371C1234.77 301.594 1236.43 298.043 1239.71 296.455L1283.56 275.255C1286.85 273.666 1290.53 274.634 1291.77 277.41L1321.71 344.482C1322.01 345.188 1322.15 345.957 1322.12 346.728C1322.09 347.5 1321.89 348.253 1321.54 348.932C1320.77 350.469 1319.52 351.691 1318 352.398L1274.16 373.597C1273.14 374.097 1272.03 374.359 1270.91 374.367Z" fill="#3F3D56"/>
<path d="M1276.9 384.52L1226.17 409.049L1305.75 587.298L1356.49 562.768L1276.9 384.52Z" fill="#E6E6E6"/>
<path d="M1214.4 156.824L1199.52 164.017C1196.65 165.405 1192.78 163.092 1190.89 158.862C1189 154.631 1189.8 150.059 1192.67 148.671L1207.55 141.478C1210.42 140.089 1214.29 142.402 1216.18 146.633C1218.07 150.863 1217.27 155.436 1214.4 156.824Z" fill="#3F3D56"/>
<path d="M1231.41 349.022C1221.93 353.619 1221.77 374.209 1224.75 380.88L1230.14 392.956L1264.5 376.34L1259.11 364.264C1256.13 357.595 1240.91 344.44 1231.41 349.022Z" fill="#3F3D56"/>
<path d="M1073.8 307.922C1070.45 310.245 1067.02 304.715 1070.44 302.495C1073.79 300.172 1077.22 305.702 1073.8 307.922Z" fill="#E6E6E6"/>
<path d="M1422.61 228.465C1419.26 230.788 1415.83 225.258 1419.24 223.038C1422.59 220.715 1426.02 226.245 1422.61 228.465Z" fill="#E6E6E6"/>
<path d="M1184.87 291.669C1181.52 293.993 1178.09 288.463 1181.5 286.243C1184.85 283.919 1188.28 289.449 1184.87 291.669Z" fill="#E6E6E6"/>
<path d="M1073.8 508.37C1070.45 510.694 1067.02 505.164 1070.44 502.944C1073.79 500.62 1077.22 506.15 1073.8 508.37Z" fill="#E6E6E6"/>
<path d="M1244.74 56.0066C1241.38 58.33 1237.95 52.8001 1241.37 50.5799C1244.72 48.2566 1248.15 53.7865 1244.74 56.0066Z" fill="#E6E6E6"/>
<path d="M1079.88 162.552C1076.53 164.875 1073.1 159.345 1076.51 157.125C1079.86 154.802 1083.29 160.331 1079.88 162.552Z" fill="#E6E6E6"/>
<path d="M1316.99 132.007L1314.86 131.521L1315.33 129.301L1313.91 128.977L1313.44 131.196L1311.31 130.711L1311 132.19L1313.13 132.676L1312.66 134.895L1314.08 135.219L1314.55 133L1316.68 133.486L1316.99 132.007Z" fill="#E6E6E6"/>
<path d="M969.841 316.906L967.71 316.419L968.176 314.2L966.755 313.876L966.287 316.095L964.155 315.609L963.843 317.088L965.976 317.575L965.509 319.794L966.93 320.117L967.398 317.899L969.53 318.385L969.841 316.906Z" fill="#E6E6E6"/>
<path d="M1407.05 411.223C1405.27 412.079 1403.25 412.167 1401.41 411.468C1399.57 410.769 1398.08 409.341 1397.25 407.497L1388.48 387.844C1387.66 385.999 1387.57 383.889 1388.25 381.98C1388.92 380.07 1390.29 378.516 1392.06 377.659C1393.84 376.802 1395.86 376.712 1397.7 377.409C1399.53 378.106 1401.03 379.533 1401.86 381.377L1410.63 401.029C1411.45 402.876 1411.54 404.986 1410.86 406.897C1410.19 408.808 1408.82 410.364 1407.05 411.223V411.223Z" fill="#3F3D56"/>
<path d="M1257.81 483.457C1256.04 484.312 1254.01 484.4 1252.17 483.702C1250.33 483.003 1248.84 481.575 1248.01 479.731L1239.24 460.078C1238.42 458.232 1238.33 456.123 1239.01 454.213C1239.68 452.304 1241.05 450.75 1242.82 449.893C1244.6 449.036 1246.62 448.946 1248.46 449.643C1250.3 450.34 1251.79 451.767 1252.62 453.61L1261.39 473.263C1262.21 475.109 1262.3 477.219 1261.63 479.13C1260.95 481.042 1259.58 482.597 1257.81 483.457Z" fill="#3F3D56"/>
<path d="M1393.53 368.285L1334.7 396.73C1330.95 390.666 1319.66 359.591 1322.2 350.371L1323.44 340.057L1358.57 322.122L1366.35 328.898C1377.32 325.04 1393.44 353.321 1393.53 368.285Z" fill="#E6E6E6"/>
<path d="M1366.22 366.313L1351.34 373.506C1348.47 374.894 1344.1 371.472 1341.6 365.879C1339.11 360.286 1339.41 354.604 1342.28 353.216L1357.16 346.023C1360.03 344.635 1364.4 348.057 1366.9 353.65C1369.39 359.244 1369.09 364.925 1366.22 366.313Z" fill="#3F3D56"/>
<path d="M1240.04 403.327L1234.35 390.291L1237.63 388.719L1243.3 401.712L1325.48 591.331L1322.21 592.914" fill="#3F3D56"/>
<path d="M1296.32 414.518L1237.49 442.963C1228.81 438.299 1215.55 407.784 1224.99 396.603L1226.23 386.289L1261.36 368.354L1269.15 375.131C1277.22 377.708 1292.93 406.896 1296.32 414.518Z" fill="#E6E6E6"/>
<path d="M1267.8 409.833L1252.92 417.027C1250.05 418.415 1245.95 415.601 1243.79 410.755C1241.63 405.91 1242.2 400.837 1245.07 399.449L1259.95 392.256C1262.82 390.867 1266.92 393.681 1269.08 398.527C1271.24 403.372 1270.67 408.445 1267.8 409.833Z" fill="#3F3D56"/>
<path d="M969.624 277.96C1018.98 277.96 1058.99 236.322 1058.99 184.959C1058.99 133.596 1018.98 91.958 969.624 91.958C920.267 91.958 880.254 133.596 880.254 184.959C880.254 236.322 920.267 277.96 969.624 277.96Z" fill="#FF6584"/>
<path opacity="0.3" d="M1336.05 281.823L1390.36 116.761L1330.73 279.848C1330.43 280.235 1330.23 280.689 1330.14 281.174C1330.05 281.659 1330.07 282.159 1330.2 282.634C1330.33 283.109 1330.56 283.544 1330.89 283.905C1331.21 284.265 1331.62 284.539 1332.06 284.705C1332.51 284.871 1332.99 284.924 1333.46 284.859C1333.93 284.793 1334.38 284.613 1334.77 284.331C1335.16 284.049 1335.48 283.675 1335.7 283.239C1335.93 282.802 1336.05 282.317 1336.05 281.823H1336.05Z" fill="#F0F0F0"/>
<path d="M1474.49 183.436C1463.86 187.113 1452.07 190.725 1439.13 194.272C1372.2 212.611 1282.48 226.916 1186.5 234.553C1090.52 242.19 999.753 242.246 930.915 234.711C897.382 231.04 870.86 225.76 852.084 219.017C832.207 211.879 821.762 203.277 821.04 193.452C819.633 174.31 855.931 157.463 886.628 146.7L887.46 149.267C845.304 164.047 822.637 179.666 823.635 193.246C824.906 210.542 864.107 224.673 931.188 232.017C999.874 239.535 1090.47 239.478 1186.3 231.853C1282.13 224.227 1371.68 209.95 1438.47 191.652C1503.7 173.782 1540.38 153.612 1539.11 136.316C1538.05 121.955 1510.85 109.67 1462.51 101.723L1462.92 99.0474C1498.04 104.822 1540.22 115.939 1541.7 136.109C1542.43 145.935 1533.36 156.089 1514.76 166.289C1504.15 172.103 1490.68 177.839 1474.49 183.436Z" fill="#3F3D56"/>
<path d="M1500.75 348.382C1505.88 348.382 1510.04 344.055 1510.04 338.719C1510.04 333.382 1505.88 329.055 1500.75 329.055C1495.62 329.055 1491.47 333.382 1491.47 338.719C1491.47 344.055 1495.62 348.382 1500.75 348.382Z" fill="#FF6584"/>
<path d="M1559.75 610.229C1564.88 610.229 1569.04 605.903 1569.04 600.566C1569.04 595.229 1564.88 590.903 1559.75 590.903C1554.63 590.903 1550.47 595.229 1550.47 600.566C1550.47 605.903 1554.63 610.229 1559.75 610.229Z" fill="#F2F2F2"/>
<path d="M1243.06 669.067C1253.05 669.067 1261.16 660.632 1261.16 650.227C1261.16 639.821 1253.05 631.386 1243.06 631.386C1233.06 631.386 1224.95 639.821 1224.95 650.227C1224.95 660.632 1233.06 669.067 1243.06 669.067Z" fill="#F2F2F2"/>
<path d="M1105.1 419.713C1110.23 419.713 1114.38 415.386 1114.38 410.049C1114.38 404.712 1110.23 400.386 1105.1 400.386C1099.97 400.386 1095.81 404.712 1095.81 410.049C1095.81 415.386 1099.97 419.713 1105.1 419.713Z" fill="#3F3D56"/>
<path d="M1417.28 432.29L1457.35 443.083L1481.92 493.31L1440.38 495.006L1417.28 432.29Z" fill="#E6E6E6"/>
<path d="M1324.81 359.881L1346.86 382.841L1402.86 508.848L1392.55 518.118L1324.81 359.881Z" fill="#CCCCCC"/>
<path d="M1276.86 380.693L1278.59 413.105L1331.45 540.574L1344.97 538.762L1276.86 380.693Z" fill="#CCCCCC"/>
<path d="M1275.42 511.629L1253.84 548.38L1269.75 602.256L1300.73 573.41L1275.42 511.629Z" fill="#E6E6E6"/>
<path d="M1466.03 534.211C1454.83 534.211 1442.55 533.77 1429.19 532.889C1360.11 528.324 1270.63 512.454 1177.24 488.202C1083.85 463.95 997.694 434.212 934.653 404.47C903.944 389.981 880.375 376.266 864.602 363.705C847.901 350.408 840.597 338.817 842.889 329.256C847.356 310.63 886.907 306.555 919.299 306.416L919.31 309.125C874.827 309.315 848.584 316.698 845.415 329.912C841.379 346.743 874.297 373.018 935.728 402.003C998.63 431.68 1084.62 461.36 1177.87 485.574C1271.12 509.787 1360.43 525.631 1429.36 530.186C1496.67 534.635 1537.59 527.533 1541.63 510.702C1544.98 496.728 1522.89 476.143 1479.42 452.736L1480.62 450.331C1512.2 467.338 1548.86 491.731 1544.15 511.358C1541.86 520.919 1530.18 527.579 1509.43 531.153C1497.61 533.19 1483.08 534.211 1466.03 534.211Z" fill="#3F3D56"/>
</g>
<g clip-path="url(#clip2_110:1319)">
<path d="M763.402 742.591C759.672 785.671 740.892 827.301 714.102 861.731C712.982 863.171 711.849 864.597 710.702 866.011C708.122 869.191 705.476 872.311 702.762 875.371C699.442 879.141 696.026 882.824 692.512 886.421C689.652 889.381 686.726 892.277 683.732 895.111C681.422 897.321 679.086 899.487 676.722 901.611C648.292 927.301 615.632 948.501 581.982 967.041C516.312 1003.21 444.332 1030.61 369.462 1034.6C294.602 1038.58 216.452 1017.14 161.552 966.081C87.5622 897.271 66.9122 782.501 96.9522 686.031C116.932 621.851 157.712 563.791 213.212 525.871C268.232 488.281 337.642 471.361 403.332 482.421C455.772 450.551 524.422 449.941 581.432 473.531C611.852 486.121 639.152 504.841 663.102 527.461C674.07 537.842 684.333 548.943 693.822 560.691C694.792 561.881 695.752 563.081 696.702 564.291C700.682 569.321 704.532 574.454 708.252 579.691C713.592 587.201 718.662 594.877 723.462 602.721C724.782 604.881 726.092 607.051 727.372 609.241C728.232 610.711 729.102 612.191 729.952 613.681C729.972 613.711 729.985 613.745 729.992 613.781C743.302 637.191 754.182 662.171 759.852 688.281C760.852 692.901 761.692 697.541 762.342 702.221V702.231C762.912 706.201 763.342 710.191 763.632 714.201C764.316 723.655 764.239 733.149 763.402 742.591V742.591Z" fill="#3F3D56"/>
<path opacity="0.3" d="M568.044 807.717L419.582 684.039L563.81 812.671C564.089 813.142 564.477 813.539 564.94 813.829C565.404 814.12 565.93 814.296 566.475 814.343C567.02 814.39 567.568 814.306 568.075 814.099C568.581 813.891 569.03 813.566 569.386 813.15C569.741 812.734 569.992 812.24 570.118 811.707C570.245 811.175 570.242 810.62 570.111 810.089C569.979 809.558 569.723 809.065 569.364 808.653C569.004 808.241 568.552 807.92 568.044 807.717V807.717Z" fill="#F0F0F0"/>
<path d="M227.582 744.781C276.736 744.781 316.582 704.934 316.582 655.781C316.582 606.627 276.736 566.781 227.582 566.781C178.429 566.781 138.582 606.627 138.582 655.781C138.582 704.934 178.429 744.781 227.582 744.781Z" fill="#F2F2F2"/>
<path d="M306.582 649.781C306.583 660.418 304.488 670.951 300.418 680.779C296.348 690.607 290.381 699.537 282.86 707.058C275.338 714.58 266.408 720.546 256.58 724.617C246.753 728.687 236.219 730.782 225.582 730.781C216.101 730.775 206.694 729.117 197.782 725.881C183.848 720.805 171.574 712.003 162.296 700.434C153.018 688.866 147.091 674.973 145.161 660.27C143.232 645.566 145.373 630.615 151.352 617.044C157.33 603.473 166.918 591.802 179.07 583.302C191.222 574.803 205.473 569.8 220.271 568.838C235.07 567.876 249.849 570.993 262.998 577.849C276.148 584.705 287.165 595.036 294.85 607.72C302.535 620.403 306.593 634.951 306.582 649.781V649.781Z" fill="white"/>
<path d="M211.582 647.781C225.389 647.781 236.582 636.588 236.582 622.781C236.582 608.974 225.389 597.781 211.582 597.781C197.775 597.781 186.582 608.974 186.582 622.781C186.582 636.588 197.775 647.781 211.582 647.781Z" fill="#E4E4E4"/>
<path d="M303.422 627.311C298.004 629.917 291.828 630.484 286.026 628.907C280.223 627.33 275.184 623.715 271.831 618.724C268.478 613.733 267.036 607.701 267.769 601.733C268.502 595.765 271.361 590.262 275.822 586.231C289.08 596.712 298.73 611.075 303.422 627.311Z" fill="#F2F2F2"/>
<path d="M252.582 685.781C257.553 685.781 261.582 681.751 261.582 676.781C261.582 671.81 257.553 667.781 252.582 667.781C247.612 667.781 243.582 671.81 243.582 676.781C243.582 681.751 247.612 685.781 252.582 685.781Z" fill="#E4E4E4"/>
<path d="M215.582 727.781C215.581 728.571 215.477 729.358 215.272 730.121C209.3 729.374 203.433 727.951 197.782 725.881C198.251 723.709 199.507 721.788 201.308 720.487C203.109 719.185 205.327 718.596 207.536 718.832C209.745 719.067 211.789 720.112 213.274 721.764C214.76 723.416 215.582 725.559 215.582 727.781Z" fill="#F2F2F2"/>
<path d="M162.582 645.781C162.582 650.347 160.846 654.742 157.727 658.077C154.608 661.411 150.338 663.436 145.782 663.741C143.72 651.854 144.321 639.657 147.542 628.031C151.744 628.731 155.561 630.899 158.315 634.149C161.069 637.399 162.581 641.521 162.582 645.781Z" fill="#F2F2F2"/>
<path d="M606.456 617.185C608.501 617.185 610.159 615.528 610.159 613.483C610.159 611.438 608.501 609.781 606.456 609.781C604.412 609.781 602.754 611.438 602.754 613.483C602.754 615.528 604.412 617.185 606.456 617.185Z" fill="#6C63FF"/>
<path d="M572.302 527.112C573.497 527.112 574.465 526.143 574.465 524.948C574.465 523.754 573.497 522.785 572.302 522.785C571.108 522.785 570.139 523.754 570.139 524.948C570.139 526.143 571.108 527.112 572.302 527.112Z" fill="#F0F0F0"/>
<path d="M225.302 951.112C226.497 951.112 227.465 950.143 227.465 948.948C227.465 947.754 226.497 946.785 225.302 946.785C224.108 946.785 223.139 947.754 223.139 948.948C223.139 950.143 224.108 951.112 225.302 951.112Z" fill="#F0F0F0"/>
<path d="M584.581 738.757C585.776 738.757 586.745 737.789 586.745 736.594C586.745 735.399 585.776 734.431 584.581 734.431C583.387 734.431 582.418 735.399 582.418 736.594C582.418 737.789 583.387 738.757 584.581 738.757Z" fill="#F0F0F0"/>
<path d="M305.457 759.185C307.501 759.185 309.159 757.528 309.159 755.483C309.159 753.438 307.501 751.781 305.457 751.781C303.412 751.781 301.754 753.438 301.754 755.483C301.754 757.528 303.412 759.185 305.457 759.185Z" fill="#6C63FF"/>
<path d="M171.457 838.966C181.112 838.966 188.94 831.139 188.94 821.483C188.94 811.827 181.112 804 171.457 804C161.801 804 153.974 811.827 153.974 821.483C153.974 831.139 161.801 838.966 171.457 838.966Z" fill="#6C63FF"/>
<path d="M267.302 843.112C268.497 843.112 269.465 842.143 269.465 840.948C269.465 839.754 268.497 838.785 267.302 838.785C266.108 838.785 265.139 839.754 265.139 840.948C265.139 842.143 266.108 843.112 267.302 843.112Z" fill="#F0F0F0"/>
<path d="M487.302 505.112C488.497 505.112 489.465 504.143 489.465 502.948C489.465 501.754 488.497 500.785 487.302 500.785C486.108 500.785 485.139 501.754 485.139 502.948C485.139 504.143 486.108 505.112 487.302 505.112Z" fill="#F0F0F0"/>
<path d="M358.302 966.112C359.497 966.112 360.465 965.143 360.465 963.948C360.465 962.754 359.497 961.785 358.302 961.785C357.108 961.785 356.139 962.754 356.139 963.948C356.139 965.143 357.108 966.112 358.302 966.112Z" fill="#F0F0F0"/>
<path d="M326.302 525.112C327.497 525.112 328.465 524.143 328.465 522.948C328.465 521.754 327.497 520.785 326.302 520.785C325.108 520.785 324.139 521.754 324.139 522.948C324.139 524.143 325.108 525.112 326.302 525.112Z" fill="#F0F0F0"/>
<path d="M382.302 630.112C383.497 630.112 384.465 629.143 384.465 627.948C384.465 626.754 383.497 625.785 382.302 625.785C381.108 625.785 380.139 626.754 380.139 627.948C380.139 629.143 381.108 630.112 382.302 630.112Z" fill="#F0F0F0"/>
<path d="M296.581 887.757C297.776 887.757 298.744 886.789 298.744 885.594C298.744 884.399 297.776 883.431 296.581 883.431C295.387 883.431 294.418 884.399 294.418 885.594C294.418 886.789 295.387 887.757 296.581 887.757Z" fill="#F0F0F0"/>
<path d="M549.581 901.757C550.776 901.757 551.745 900.789 551.745 899.594C551.745 898.399 550.776 897.431 549.581 897.431C548.387 897.431 547.418 898.399 547.418 899.594C547.418 900.789 548.387 901.757 549.581 901.757Z" fill="#F0F0F0"/>
<path d="M437.581 775.757C438.776 775.757 439.744 774.789 439.744 773.594C439.744 772.399 438.776 771.431 437.581 771.431C436.387 771.431 435.418 772.399 435.418 773.594C435.418 774.789 436.387 775.757 437.581 775.757Z" fill="#F0F0F0"/>
<path d="M494.581 629.757C495.776 629.757 496.744 628.789 496.744 627.594C496.744 626.399 495.776 625.431 494.581 625.431C493.387 625.431 492.418 626.399 492.418 627.594C492.418 628.789 493.387 629.757 494.581 629.757Z" fill="#F0F0F0"/>
<path d="M598.212 701.944C600.581 701.944 602.501 700.023 602.501 697.655C602.501 695.286 600.581 693.366 598.212 693.366C595.843 693.366 593.923 695.286 593.923 697.655C593.923 700.023 595.843 701.944 598.212 701.944Z" fill="#FF6584"/>
<path d="M424.212 559.943C426.581 559.943 428.501 558.023 428.501 555.655C428.501 553.286 426.581 551.366 424.212 551.366C421.843 551.366 419.923 553.286 419.923 555.655C419.923 558.023 421.843 559.943 424.212 559.943Z" fill="#FF6584"/>
<path d="M424.212 854.944C426.581 854.944 428.501 853.023 428.501 850.655C428.501 848.286 426.581 846.366 424.212 846.366C421.843 846.366 419.923 848.286 419.923 850.655C419.923 853.023 421.843 854.944 424.212 854.944Z" fill="#FF6584"/>
<path d="M691.422 875.371C689.752 875.372 688.127 875.918 686.794 876.924C685.461 877.931 684.491 879.344 684.032 880.951C683.83 881.639 683.729 882.353 683.732 883.071V895.111C686.722 892.281 689.649 889.384 692.512 886.421C696.022 882.821 699.439 879.137 702.762 875.371H691.422Z" fill="#6C63FF"/>
<path d="M718.651 937.931C705.739 937.931 691.587 937.443 676.194 936.467C596.581 931.412 493.457 913.834 385.818 886.975C278.181 860.116 178.888 827.181 106.233 794.241C70.8404 778.194 43.6769 763.004 25.4977 749.093C6.25059 734.366 -2.16835 721.529 0.473718 710.94C5.62172 690.312 51.2047 685.798 88.5377 685.645L88.5504 688.645C37.2823 688.855 7.03675 697.032 3.3849 711.667C-1.26696 730.307 36.6715 759.408 107.472 791.508C179.967 824.376 279.077 857.248 386.545 884.065C494.012 910.881 596.946 928.428 676.385 933.473C753.964 938.401 801.128 930.536 805.779 911.895C809.641 896.418 784.181 873.62 734.09 847.697L735.469 845.033C771.866 863.869 814.114 890.884 808.691 912.622C806.048 923.21 792.585 930.586 768.675 934.544C755.046 936.8 738.305 937.931 718.651 937.931Z" fill="#6C63FF"/>
<path d="M714.582 714.281C770.087 714.281 815.082 669.285 815.082 613.781C815.082 558.276 770.087 513.281 714.582 513.281C659.077 513.281 614.082 558.276 614.082 613.781C614.082 669.285 659.077 714.281 714.582 714.281Z" fill="white"/>
<path d="M714.582 511.781C694.408 511.781 674.688 517.763 657.914 528.971C641.14 540.179 628.067 556.109 620.346 574.747C612.626 593.385 610.606 613.894 614.542 633.68C618.478 653.466 628.192 671.641 642.457 685.906C656.722 700.171 674.897 709.885 694.683 713.821C714.469 717.756 734.978 715.737 753.616 708.016C772.254 700.296 788.184 687.223 799.392 670.449C810.6 653.675 816.582 633.954 816.582 613.781C816.63 600.372 814.025 587.087 808.916 574.69C803.807 562.293 796.296 551.029 786.815 541.548C777.333 532.067 766.07 524.556 753.673 519.447C741.276 514.338 727.99 511.732 714.582 511.781V511.781ZM714.582 712.781C695.002 712.781 675.861 706.974 659.581 696.096C643.3 685.218 630.611 669.756 623.118 651.666C615.625 633.576 613.664 613.671 617.484 594.467C621.304 575.263 630.733 557.623 644.579 543.777C658.424 529.932 676.064 520.503 695.268 516.683C714.472 512.863 734.378 514.824 752.468 522.317C770.558 529.81 786.019 542.499 796.898 558.779C807.776 575.06 813.582 594.2 813.582 613.781C813.633 626.796 811.106 639.692 806.149 651.726C801.192 663.76 793.901 674.694 784.698 683.897C775.495 693.1 764.562 700.39 752.527 705.348C740.493 710.305 727.597 712.831 714.582 712.781V712.781Z" fill="#2F2E41"/>
<path d="M626.387 637.852C625.927 637.851 625.481 637.692 625.124 637.401C624.768 637.11 624.523 636.705 624.43 636.254C621.555 621.611 622.074 606.504 625.947 592.092C629.82 577.681 636.943 564.349 646.771 553.119C647.124 552.725 647.619 552.487 648.148 552.457C648.676 552.428 649.195 552.609 649.59 552.961C649.985 553.313 650.225 553.808 650.256 554.336C650.287 554.864 650.108 555.384 649.757 555.78C640.339 566.541 633.513 579.318 629.802 593.128C626.09 606.939 625.593 621.416 628.348 635.448C628.407 635.739 628.401 636.04 628.33 636.328C628.259 636.616 628.125 636.885 627.938 637.115C627.75 637.345 627.513 637.531 627.245 637.658C626.977 637.785 626.684 637.852 626.387 637.852H626.387Z" fill="#2F2E41"/>
<path d="M714.519 707.151C749.797 707.151 778.396 678.552 778.396 643.274C778.396 607.995 749.797 579.397 714.519 579.397C679.241 579.397 650.642 607.995 650.642 643.274C650.642 678.552 679.241 707.151 714.519 707.151Z" fill="#6C63FF"/>
<path d="M694.218 667.39C690.077 667.275 684.924 667.131 680.954 664.231C679.772 663.332 678.801 662.185 678.108 660.872C677.416 659.558 677.019 658.108 676.946 656.625C676.874 655.571 677.047 654.514 677.451 653.538C677.856 652.562 678.48 651.692 679.276 650.997C681.35 649.245 684.378 648.834 687.641 649.793L684.26 625.087L686.741 624.747L690.716 653.792L688.643 652.841C686.241 651.739 682.943 651.178 680.893 652.91C680.39 653.363 679.998 653.926 679.747 654.555C679.497 655.184 679.395 655.862 679.449 656.537C679.51 657.641 679.808 658.719 680.323 659.697C680.837 660.676 681.557 661.532 682.432 662.208C685.521 664.465 689.629 664.756 694.288 664.886L694.218 667.39Z" fill="#2F2E41"/>
<path d="M671.986 627.218H658.495V629.723H671.986V627.218Z" fill="#2F2E41"/>
<path d="M714.571 627.218H701.08V629.723H714.571V627.218Z" fill="#2F2E41"/>
<path d="M717.202 722.941H659.302C657.144 722.943 655.074 723.801 653.548 725.327C652.022 726.853 651.164 728.922 651.162 731.081V859.411C651.168 868.107 653.553 876.636 658.058 884.075C662.563 891.513 669.018 897.577 676.722 901.611C679.092 899.491 681.429 897.324 683.732 895.111C686.722 892.281 689.649 889.384 692.512 886.421C696.022 882.821 699.439 879.137 702.762 875.371C705.482 872.311 708.129 869.191 710.702 866.011C711.852 864.601 712.985 863.174 714.102 861.731C740.892 827.301 759.672 785.671 763.402 742.591C757.422 736.373 750.247 731.427 742.308 728.05C734.369 724.674 725.829 722.936 717.202 722.941Z" fill="#2F2E41"/>
<path d="M719.312 749.721C717.935 748.372 716.304 747.309 714.514 746.593C712.724 745.878 710.81 745.523 708.882 745.551C705.532 745.576 702.294 746.764 699.722 748.911C699.311 749.244 698.92 749.601 698.552 749.981L651.162 798.581L616.792 833.831C616.27 834.357 615.838 834.965 615.512 835.631C614.997 836.661 614.733 837.799 614.742 838.951C614.752 839.898 614.95 840.834 615.325 841.704C615.699 842.574 616.242 843.362 616.922 844.021L618.272 845.341L628.072 854.891L628.082 854.881C629.399 855.95 631.047 856.526 632.742 856.511C633.689 856.501 634.625 856.303 635.496 855.928C636.366 855.554 637.153 855.011 637.812 854.331L639.402 852.711L650.782 841.041L651.162 840.651L719.572 770.491C722.291 767.702 723.791 763.947 723.742 760.052C723.694 756.157 722.1 752.441 719.312 749.721L719.312 749.721Z" fill="#6C63FF"/>
<path d="M718.831 613.473C720.944 609.007 718.778 604.236 715.068 601.382C710.392 597.787 704.345 598.382 699.027 600.083C693.205 601.947 687.514 605.299 681.224 605.107C678.982 605.067 676.804 604.35 674.976 603.052C673.148 601.753 671.755 599.933 670.98 597.829C667.611 589.19 671.415 579.534 677.279 572.982C680.59 569.23 684.681 566.249 689.267 564.247C693.853 562.246 698.821 561.273 703.823 561.396C709.533 561.68 715.084 563.371 719.981 566.32C724.879 569.27 728.97 573.385 731.891 578.299C732.099 578.634 732.428 578.877 732.81 578.977C733.192 579.078 733.598 579.027 733.944 578.837C738.394 576.847 743.195 575.76 748.069 575.637C752.943 575.514 757.792 576.359 762.337 578.123C769.156 580.902 774.968 585.69 779.001 591.851C783.034 598.012 785.098 605.253 784.918 612.615C784.868 614.546 787.868 614.545 787.918 612.615C788.105 602.324 784.307 592.358 777.319 584.802C773.77 581.034 769.502 578.016 764.767 575.926C760.032 573.837 754.927 572.717 749.752 572.634C743.778 572.507 737.854 573.743 732.429 576.247L734.482 576.785C731.778 572.233 728.145 568.302 723.821 565.247C719.496 562.193 714.577 560.084 709.383 559.057C704.24 558.097 698.95 558.255 693.874 559.519C688.797 560.783 684.051 563.125 679.959 566.384C672.257 572.412 666.421 581.765 666.784 591.795C666.941 596.136 668.231 600.591 671.244 603.826C675.104 607.969 680.867 608.685 686.191 607.624C693.266 606.213 699.726 601.559 707.102 601.703C708.547 601.703 709.975 602.011 711.293 602.605C712.61 603.199 713.786 604.066 714.744 605.148C716.368 606.981 717.348 609.618 716.241 611.959C715.42 613.695 718.006 615.219 718.831 613.473L718.831 613.473Z" fill="#2F2E41"/>
<path d="M240.064 974.356C204.465 974.357 171.37 973.135 141.742 970.67C103.015 967.448 72.3272 962.267 50.5313 955.274C27.4547 947.869 15.212 938.607 14.1431 927.746C12.0601 906.587 53.4771 887.021 88.5884 874.333L89.608 877.155C41.3912 894.579 15.651 912.441 17.1285 927.453C19.0103 946.572 64.5206 961.234 141.99 967.68C221.316 974.281 325.708 971.942 435.938 961.09C546.168 950.242 649.013 932.184 725.529 910.245C800.255 888.819 842.034 865.565 840.152 846.446C838.589 830.572 806.949 817.653 751.06 810.067L751.463 807.094C792.073 812.606 840.943 823.856 843.137 846.152C844.207 857.013 834.004 868.484 812.815 880.246C792.8 891.355 763.711 902.418 726.356 913.128C649.671 935.117 546.636 953.209 436.231 964.077C366.972 970.893 299.986 974.356 240.064 974.356Z" fill="#6C63FF"/>
<path d="M838.456 856.966C848.112 856.966 855.94 849.139 855.94 839.483C855.94 829.827 848.112 822 838.456 822C828.801 822 820.973 829.827 820.973 839.483C820.973 849.139 828.801 856.966 838.456 856.966Z" fill="#6C63FF"/>
<path d="M331.457 439.966C341.112 439.966 348.94 432.139 348.94 422.483C348.94 412.827 341.112 405 331.457 405C321.801 405 313.974 412.827 313.974 422.483C313.974 432.139 321.801 439.966 331.457 439.966Z" fill="#E6E6E6"/>
<path d="M19.4566 855.966C29.1122 855.966 36.9396 848.139 36.9396 838.483C36.9396 828.827 29.1122 821 19.4566 821C9.80094 821 1.97351 828.827 1.97351 838.483C1.97351 848.139 9.80094 855.966 19.4566 855.966Z" fill="#E6E6E6"/>
<path d="M127.456 524.185C133.367 524.185 138.159 519.394 138.159 513.483C138.159 507.572 133.367 502.781 127.456 502.781C121.546 502.781 116.754 507.572 116.754 513.483C116.754 519.394 121.546 524.185 127.456 524.185Z" fill="#FF6584"/>
<path d="M77.4565 930.185C83.3672 930.185 88.1588 925.394 88.1588 919.483C88.1588 913.572 83.3672 908.781 77.4565 908.781C71.5458 908.781 66.7542 913.572 66.7542 919.483C66.7542 925.394 71.5458 930.185 77.4565 930.185Z" fill="#FF6584"/>
<path d="M807.456 755.185C813.367 755.185 818.159 750.394 818.159 744.483C818.159 738.572 813.367 733.781 807.456 733.781C801.546 733.781 796.754 738.572 796.754 744.483C796.754 750.394 801.546 755.185 807.456 755.185Z" fill="#FF6584"/>
<path d="M645.456 1020.97C655.112 1020.97 662.94 1013.14 662.94 1003.48C662.94 993.827 655.112 986 645.456 986C635.801 986 627.973 993.827 627.973 1003.48C627.973 1013.14 635.801 1020.97 645.456 1020.97Z" fill="#E6E6E6"/>
</g>
<path d="M226.034 285H233.415V273.682H239.619C247.648 273.682 252.318 268.892 252.318 261.92C252.318 254.983 247.733 250.091 239.807 250.091H226.034V285ZM233.415 267.767V256.125H238.392C242.653 256.125 244.716 258.443 244.716 261.92C244.716 265.381 242.653 267.767 238.426 267.767H233.415ZM264.237 250.091H256.976V285H264.237V250.091ZM277.52 285.494C281.389 285.494 283.895 283.807 285.173 281.369H285.378V285H292.264V267.341C292.264 261.102 286.98 258.477 281.151 258.477C274.878 258.477 270.753 261.477 269.747 266.25L276.463 266.795C276.957 265.057 278.509 263.778 281.116 263.778C283.588 263.778 285.003 265.023 285.003 267.17V267.273C285.003 268.96 283.213 269.182 278.662 269.625C273.48 270.102 268.827 271.841 268.827 277.688C268.827 282.869 272.526 285.494 277.52 285.494ZM279.599 280.483C277.366 280.483 275.764 279.443 275.764 277.449C275.764 275.403 277.452 274.398 280.009 274.04C281.594 273.818 284.185 273.443 285.054 272.864V275.642C285.054 278.386 282.787 280.483 279.599 280.483ZM311.824 258.818H306.898V252.545H299.636V258.818H296.057V264.273H299.636V277.909C299.602 283.04 303.097 285.58 308.364 285.358C310.239 285.29 311.568 284.915 312.301 284.676L311.159 279.273C310.801 279.341 310.034 279.511 309.352 279.511C307.903 279.511 306.898 278.966 306.898 276.955V264.273H311.824V258.818ZM330.634 258.818H325.435V257.062C325.435 255.29 326.151 254.25 328.281 254.25C329.151 254.25 330.037 254.438 330.616 254.625L331.895 249.17C330.991 248.898 328.997 248.455 326.764 248.455C321.838 248.455 318.173 251.233 318.173 256.926V258.818H314.474V264.273H318.173V285H325.435V264.273H330.634V258.818ZM345.962 285.511C353.905 285.511 358.848 280.074 358.848 272.011C358.848 263.898 353.905 258.477 345.962 258.477C338.018 258.477 333.075 263.898 333.075 272.011C333.075 280.074 338.018 285.511 345.962 285.511ZM345.996 279.886C342.331 279.886 340.456 276.528 340.456 271.96C340.456 267.392 342.331 264.017 345.996 264.017C349.592 264.017 351.467 267.392 351.467 271.96C351.467 276.528 349.592 279.886 345.996 279.886ZM363.57 285H370.831V270.188C370.831 266.966 373.183 264.75 376.388 264.75C377.393 264.75 378.774 264.92 379.456 265.142V258.699C378.808 258.545 377.905 258.443 377.172 258.443C374.24 258.443 371.837 260.148 370.882 263.386H370.609V258.818H363.57V285ZM383.21 285H390.472V269.284C390.472 266.386 392.312 264.46 394.733 264.46C397.119 264.46 398.722 266.097 398.722 268.67V285H405.761V269.011C405.761 266.301 407.312 264.46 409.955 264.46C412.273 264.46 414.011 265.909 414.011 268.824V285H421.256V267.392C421.256 261.716 417.881 258.477 413.006 258.477C409.17 258.477 406.188 260.438 405.114 263.438H404.841C404.006 260.403 401.33 258.477 397.733 258.477C394.205 258.477 391.528 260.352 390.438 263.438H390.131V258.818H383.21V285ZM448.776 266.284C448.128 261.46 444.241 258.477 437.628 258.477C430.929 258.477 426.514 261.58 426.531 266.625C426.514 270.545 428.986 273.085 434.099 274.108L438.634 275.011C440.918 275.472 441.957 276.307 441.991 277.619C441.957 279.17 440.27 280.278 437.73 280.278C435.139 280.278 433.418 279.17 432.974 277.04L425.832 277.415C426.514 282.426 430.776 285.511 437.713 285.511C444.497 285.511 449.355 282.051 449.372 276.886C449.355 273.102 446.884 270.835 441.804 269.795L437.065 268.841C434.628 268.312 433.724 267.477 433.741 266.216C433.724 264.648 435.497 263.625 437.747 263.625C440.27 263.625 441.77 265.006 442.128 266.693L448.776 266.284ZM479.134 258.818H473.935V257.062C473.935 255.29 474.651 254.25 476.781 254.25C477.651 254.25 478.537 254.438 479.116 254.625L480.395 249.17C479.491 248.898 477.497 248.455 475.264 248.455C470.338 248.455 466.673 251.233 466.673 256.926V258.818H462.974V264.273H466.673V285H473.935V264.273H479.134V258.818ZM494.462 285.511C502.405 285.511 507.348 280.074 507.348 272.011C507.348 263.898 502.405 258.477 494.462 258.477C486.518 258.477 481.575 263.898 481.575 272.011C481.575 280.074 486.518 285.511 494.462 285.511ZM494.496 279.886C490.831 279.886 488.956 276.528 488.956 271.96C488.956 267.392 490.831 264.017 494.496 264.017C498.092 264.017 499.967 267.392 499.967 271.96C499.967 276.528 498.092 279.886 494.496 279.886ZM512.07 285H519.331V270.188C519.331 266.966 521.683 264.75 524.888 264.75C525.893 264.75 527.274 264.92 527.956 265.142V258.699C527.308 258.545 526.405 258.443 525.672 258.443C522.74 258.443 520.337 260.148 519.382 263.386H519.109V258.818H512.07V285ZM550.286 285.494C554.155 285.494 556.661 283.807 557.939 281.369H558.143V285H565.03V267.341C565.03 261.102 559.746 258.477 553.916 258.477C547.643 258.477 543.518 261.477 542.513 266.25L549.229 266.795C549.723 265.057 551.274 263.778 553.882 263.778C556.354 263.778 557.768 265.023 557.768 267.17V267.273C557.768 268.96 555.979 269.182 551.428 269.625C546.246 270.102 541.592 271.841 541.592 277.688C541.592 282.869 545.291 285.494 550.286 285.494ZM552.365 280.483C550.132 280.483 548.53 279.443 548.53 277.449C548.53 275.403 550.217 274.398 552.774 274.04C554.359 273.818 556.95 273.443 557.82 272.864V275.642C557.82 278.386 555.553 280.483 552.365 280.483ZM577.925 250.091H570.663V285H577.925V250.091ZM591.003 250.091H583.741V285H591.003V250.091ZM601.064 285.443C603.246 285.443 605.138 283.619 605.155 281.352C605.138 279.119 603.246 277.295 601.064 277.295C598.814 277.295 596.956 279.119 596.973 281.352C596.956 283.619 598.814 285.443 601.064 285.443Z" fill="#FFFFFC"/>
</g>
<defs>
<clipPath id="clip0_110:1319">
<rect width="1604" height="1035.07" fill="white"/>
</clipPath>
<clipPath id="clip1_110:1319">
<rect width="783" height="746" fill="white" transform="translate(821)"/>
</clipPath>
<clipPath id="clip2_110:1319">
<rect width="855.94" height="630.066" fill="white" transform="translate(0 405)"/>
</clipPath>
</defs>
</svg>
